<?xml version="1.0" encoding="UTF-8"?>
<!DOCTYPE svg PUBLIC "-//W3C//DTD SVG 1.1//EN" "http://www.w3.org/Graphics/SVG/1.1/DTD/svg11.dtd">
<!-- Creator: CorelDRAW -->
<svg xmlns="http://www.w3.org/2000/svg" xml:space="preserve" width="207px" height="70px" version="1.1" style="shape-rendering:geometricPrecision; text-rendering:geometricPrecision; image-rendering:optimizeQuality; fill-rule:evenodd; clip-rule:evenodd"
viewBox="0 0 74.3 25.15"
 xmlns:xlink="http://www.w3.org/1999/xlink"
 xmlns:xodm="http://www.corel.com/coreldraw/odm/2003">
 <defs>
  <style type="text/css">
   <![CDATA[
    .fil0 {fill:#2E2C2F;fill-rule:nonzero}
   ]]>
  </style>
 </defs>
 <g id="Layer_x0020_1">
  <metadata id="CorelCorpID_0Corel-Layer"/>
  <g id="_2369297907328">
   <path class="fil0" d="M71.28 0l-68.26 0c-1.67,0 -3.02,1.35 -3.02,3.02l0 19.11c0,1.67 1.35,3.02 3.02,3.02l68.26 0c1.67,0 3.02,-1.35 3.02,-3.02l0 -19.11c0,-1.67 -1.35,-3.02 -3.02,-3.02l0 0zm0 0.71c1.28,0 2.31,1.03 2.31,2.31l0 19.11c0,1.28 -1.03,2.32 -2.31,2.32l-68.26 0c-1.28,0 -2.31,-1.04 -2.31,-2.32l0 -19.11c0,-1.28 1.03,-2.31 2.31,-2.31l68.26 0z"/>
   <path class="fil0" d="M12.26 7.89c-0.1,-0.81 0.3,-1.67 0.75,-2.19 0.51,-0.6 1.4,-1.06 2.1,-1.09 0.09,0.84 -0.24,1.67 -0.73,2.28 -0.51,0.6 -1.32,1.06 -2.12,1z"/>
   <path class="fil0" d="M18.08 15.06c-0.01,0.05 -0.29,1.03 -0.99,2.02 -0.59,0.88 -1.2,1.73 -2.18,1.75 -0.94,0.02 -1.26,-0.56 -2.35,-0.56 -1.09,0 -1.43,0.54 -2.34,0.58 -0.93,0.04 -1.63,-0.94 -2.24,-1.8 -1.21,-1.77 -2.15,-4.99 -0.89,-7.18 0.61,-1.08 1.73,-1.77 2.92,-1.79 0.93,-0.01 1.79,0.63 2.36,0.63 0.56,0 1.63,-0.77 2.72,-0.66 0.46,0.02 1.77,0.19 2.61,1.42 -0.06,0.04 -1.55,0.91 -1.53,2.71 0.02,2.16 1.88,2.87 1.91,2.88z"/>
   <path class="fil0" d="M24.46 15.63l0.62 -1.94c0.16,-0.62 0.28,-1.08 0.36,-1.4l0.02 0c0.18,0.73 0.31,1.2 0.37,1.4l0.63 1.94 -2 0zm1.77 -4.34l-1.48 0 -2.39 7.43 1.24 0 0.65 -2.18 2.42 0 0.69 2.18 1.27 0 -2.4 -7.43z"/>
   <path class="fil0" d="M33.18 17.39c-0.25,0.34 -0.6,0.52 -1.04,0.52 -0.39,0 -0.7,-0.14 -0.93,-0.4 -0.24,-0.27 -0.36,-0.6 -0.36,-0.99l0 -0.89c0,-0.1 0.02,-0.22 0.05,-0.37 0.07,-0.31 0.24,-0.57 0.47,-0.76 0.24,-0.19 0.51,-0.29 0.8,-0.29 0.43,0 0.78,0.17 1.04,0.53 0.23,0.33 0.35,0.76 0.35,1.28 0,0.57 -0.13,1.02 -0.38,1.37zm0.95 -3.38c-0.42,-0.5 -0.95,-0.75 -1.58,-0.75 -0.81,0 -1.41,0.32 -1.81,0.96l-0.02 0 -0.06 -0.85 -1.05 0c0.03,0.6 0.05,1.18 0.05,1.76l0 5.77 1.19 0 0 -2.81c0.31,0.5 0.82,0.76 1.53,0.76 0.65,0 1.2,-0.24 1.65,-0.71 0.5,-0.53 0.74,-1.25 0.74,-2.16 0,-0.82 -0.21,-1.47 -0.64,-1.97z"/>
   <path class="fil0" d="M39.34 17.39c-0.25,0.34 -0.6,0.52 -1.05,0.52 -0.38,0 -0.69,-0.14 -0.93,-0.4 -0.23,-0.27 -0.35,-0.6 -0.35,-0.99l0 -0.89c0,-0.1 0.02,-0.22 0.05,-0.37 0.08,-0.31 0.23,-0.57 0.47,-0.76 0.24,-0.19 0.51,-0.29 0.8,-0.29 0.43,0 0.78,0.17 1.04,0.53 0.23,0.33 0.35,0.76 0.35,1.28 0,0.57 -0.12,1.02 -0.38,1.37zm0.95 -3.38c-0.43,-0.5 -0.95,-0.75 -1.58,-0.75 -0.81,0 -1.41,0.32 -1.81,0.96l-0.02 0 -0.07 -0.85 -1.04 0c0.03,0.6 0.04,1.18 0.04,1.76l0 5.77 1.2 0 0 -2.81c0.31,0.5 0.82,0.76 1.53,0.76 0.65,0 1.2,-0.24 1.65,-0.71 0.49,-0.53 0.74,-1.25 0.74,-2.16 0,-0.82 -0.21,-1.47 -0.64,-1.97z"/>
   <path class="fil0" d="M47.36 15.35c0.31,0.35 0.46,0.78 0.46,1.29 0,0.64 -0.22,1.15 -0.66,1.55 -0.48,0.43 -1.15,0.64 -2.02,0.64 -0.8,0 -1.44,-0.15 -1.92,-0.46l0.28 -0.99c0.52,0.31 1.09,0.46 1.72,0.46 0.44,0 0.8,-0.1 1.04,-0.3 0.25,-0.2 0.38,-0.47 0.38,-0.81 0,-0.3 -0.11,-0.55 -0.31,-0.76 -0.2,-0.2 -0.55,-0.39 -1.02,-0.57 -1.32,-0.49 -1.96,-1.2 -1.96,-2.13 0,-0.61 0.23,-1.11 0.68,-1.5 0.46,-0.39 1.07,-0.58 1.83,-0.58 0.67,0 1.24,0.11 1.68,0.35l-0.3 0.97c-0.42,-0.23 -0.89,-0.35 -1.42,-0.35 -0.42,0 -0.75,0.11 -0.99,0.31 -0.2,0.19 -0.3,0.41 -0.3,0.68 0,0.29 0.12,0.53 0.34,0.72 0.2,0.18 0.56,0.37 1.09,0.57 0.63,0.26 1.1,0.56 1.4,0.91z"/>
   <path class="fil0" d="M50.45 13.37l1.32 0 0 0.89 -1.32 0 0 2.6c0,0.66 0.23,0.99 0.7,0.99 0.21,0 0.38,-0.02 0.53,-0.05l0.03 0.9c-0.24,0.09 -0.54,0.13 -0.92,0.13 -0.48,0 -0.84,-0.14 -1.11,-0.43 -0.26,-0.28 -0.39,-0.77 -0.39,-1.44l0 -2.7 -0.78 0 0 -0.89 0.78 0 0 -0.98 1.16 -0.36 0 1.34z"/>
   <path class="fil0" d="M56.11 17.31c-0.26,0.43 -0.62,0.64 -1.07,0.64 -0.46,0 -0.82,-0.21 -1.08,-0.63 -0.21,-0.35 -0.32,-0.77 -0.32,-1.27 0,-0.5 0.1,-0.93 0.32,-1.28 0.25,-0.43 0.61,-0.64 1.09,-0.64 0.46,0 0.82,0.21 1.07,0.64 0.21,0.35 0.32,0.76 0.32,1.26 0,0.49 -0.11,0.91 -0.33,1.28zm0.88 -3.26c-0.48,-0.53 -1.11,-0.79 -1.9,-0.79 -0.81,0 -1.46,0.27 -1.95,0.8 -0.47,0.52 -0.71,1.2 -0.71,2.03 0,0.8 0.23,1.46 0.69,1.98 0.47,0.51 1.1,0.78 1.89,0.78 0.81,0 1.46,-0.28 1.96,-0.82 0.46,-0.53 0.7,-1.2 0.7,-2.03 0,-0.8 -0.22,-1.45 -0.68,-1.95z"/>
   <path class="fil0" d="M61.54 13.28l0 1.13c-0.11,-0.02 -0.24,-0.03 -0.37,-0.03 -0.42,0 -0.75,0.16 -0.97,0.48 -0.2,0.27 -0.3,0.63 -0.3,1.05l0 2.81 -1.19 0 0 -3.67c0,-0.62 -0.01,-1.18 -0.04,-1.68l1.04 0 0.04 1.02 0.04 0c0.13,-0.35 0.32,-0.64 0.59,-0.85 0.27,-0.19 0.56,-0.28 0.86,-0.28 0.11,0 0.21,0.01 0.3,0.02z"/>
   <path class="fil0" d="M63.26 15.48c0.03,-0.36 0.15,-0.67 0.35,-0.93 0.24,-0.32 0.56,-0.48 0.94,-0.48 0.43,0 0.74,0.17 0.95,0.5 0.16,0.26 0.24,0.56 0.23,0.91l-2.47 0zm3.61 0.31c0,-0.67 -0.16,-1.23 -0.48,-1.69 -0.39,-0.57 -0.98,-0.86 -1.75,-0.86 -0.79,0 -1.41,0.29 -1.87,0.86 -0.45,0.54 -0.67,1.21 -0.67,2.02 0,0.82 0.24,1.48 0.71,1.97 0.48,0.48 1.13,0.73 1.96,0.73 0.69,0 1.29,-0.11 1.8,-0.33l-0.19 -0.83c-0.43,0.17 -0.92,0.25 -1.44,0.25 -0.48,0 -0.87,-0.12 -1.17,-0.37 -0.33,-0.27 -0.5,-0.68 -0.52,-1.21l3.57 0c0.03,-0.15 0.05,-0.33 0.05,-0.54z"/>
   <path class="fil0" d="M24.14 8.61l0.76 0c0.88,0 1.36,-0.54 1.36,-1.52 0,-0.97 -0.49,-1.51 -1.36,-1.51l-0.76 0 0 3.03zm0.82 -3.59c1.23,0 1.96,0.76 1.96,2.07 0,1.31 -0.73,2.08 -1.96,2.08l-1.47 0 0 -4.15 1.47 0z"/>
   <path class="fil0" d="M29.56 7.66c0,-0.67 -0.31,-1.06 -0.8,-1.06 -0.49,0 -0.8,0.39 -0.8,1.06 0,0.67 0.31,1.06 0.8,1.06 0.49,0 0.8,-0.39 0.8,-1.06zm-2.24 0c0,-0.97 0.58,-1.57 1.44,-1.57 0.86,0 1.43,0.6 1.43,1.57 0,0.97 -0.57,1.57 -1.43,1.57 -0.87,0 -1.44,-0.6 -1.44,-1.57z"/>
   <polygon class="fil0" points="33.83,9.17 33.18,9.17 32.54,6.9 32.53,6.9 31.9,9.17 31.26,9.17 30.43,6.15 31.05,6.15 31.6,8.53 31.61,8.53 32.24,6.15 32.84,6.15 33.47,8.53 33.49,8.53 34.04,6.15 34.65,6.15 "/>
   <path class="fil0" d="M35.03 6.15l0.6 0 0 0.5 0.01 0c0.16,-0.34 0.49,-0.56 0.95,-0.56 0.67,0 1.05,0.43 1.05,1.12l0 1.96 -0.62 0 0 -1.84c0,-0.45 -0.21,-0.7 -0.65,-0.7 -0.43,0 -0.72,0.31 -0.72,0.78l0 1.76 -0.62 0 0 -3.02z"/>
   <polygon class="fil0" points="38.26,9.17 38.89,9.17 38.89,5.02 38.26,5.02 "/>
   <path class="fil0" d="M41.63 7.66c0,-0.67 -0.32,-1.06 -0.81,-1.06 -0.48,0 -0.8,0.39 -0.8,1.06 0,0.67 0.32,1.06 0.8,1.06 0.49,0 0.81,-0.39 0.81,-1.06zm-2.24 0c0,-0.97 0.57,-1.57 1.43,-1.57 0.87,0 1.44,0.6 1.44,1.57 0,0.97 -0.57,1.57 -1.44,1.57 -0.86,0 -1.43,-0.6 -1.43,-1.57z"/>
   <path class="fil0" d="M44.57 8.04l0 -0.24 -0.74 0.04c-0.38,0.03 -0.59,0.19 -0.59,0.45 0,0.27 0.22,0.44 0.56,0.44 0.43,0 0.77,-0.3 0.77,-0.69zm-1.95 0.27c0,-0.53 0.4,-0.85 1.12,-0.89l0.83 -0.05 0 -0.24c0,-0.33 -0.23,-0.53 -0.61,-0.53 -0.36,0 -0.58,0.17 -0.63,0.44l-0.59 0c0.03,-0.55 0.5,-0.95 1.25,-0.95 0.73,0 1.2,0.39 1.2,1l0 2.08 -0.6 0 0 -0.5 -0.01 0c-0.18,0.34 -0.56,0.55 -0.96,0.55 -0.59,0 -1,-0.37 -1,-0.91z"/>
   <path class="fil0" d="M46.29 7.66c0,0.64 0.31,1.04 0.8,1.04 0.48,0 0.8,-0.41 0.8,-1.04 0,-0.63 -0.32,-1.04 -0.8,-1.04 -0.49,0 -0.8,0.4 -0.8,1.04zm-0.64 0c0,-0.96 0.51,-1.56 1.27,-1.56 0.43,0 0.78,0.22 0.95,0.55l0.01 0 0 -1.63 0.62 0 0 4.15 -0.6 0 0 -0.51 -0.01 0c-0.18,0.34 -0.52,0.56 -0.96,0.56 -0.77,0 -1.28,-0.61 -1.28,-1.56z"/>
   <path class="fil0" d="M52.44 7.66c0,-0.67 -0.32,-1.06 -0.81,-1.06 -0.48,0 -0.8,0.39 -0.8,1.06 0,0.67 0.32,1.06 0.8,1.06 0.49,0 0.81,-0.39 0.81,-1.06zm-2.24 0c0,-0.97 0.57,-1.57 1.43,-1.57 0.87,0 1.44,0.6 1.44,1.57 0,0.97 -0.57,1.57 -1.44,1.57 -0.86,0 -1.43,-0.6 -1.43,-1.57z"/>
   <path class="fil0" d="M53.55 6.15l0.59 0 0 0.5 0.02 0c0.16,-0.34 0.48,-0.56 0.95,-0.56 0.66,0 1.05,0.43 1.05,1.12l0 1.96 -0.63 0 0 -1.84c0,-0.45 -0.21,-0.7 -0.64,-0.7 -0.44,0 -0.72,0.31 -0.72,0.78l0 1.76 -0.62 0 0 -3.02z"/>
   <path class="fil0" d="M58.75 5.43l0 0.72 0.58 0 0 0.49 -0.58 0 0 1.67c0,0.26 0.12,0.37 0.37,0.37 0.07,0 0.17,0 0.21,-0.01l0 0.49c-0.07,0.02 -0.21,0.03 -0.35,0.03 -0.61,0 -0.85,-0.23 -0.85,-0.82l0 -1.73 -0.44 0 0 -0.49 0.44 0 0 -0.72 0.62 0z"/>
   <path class="fil0" d="M59.86 5.02l0.62 0 0 1.63 0.01 0c0.17,-0.35 0.5,-0.56 0.96,-0.56 0.66,0 1.06,0.45 1.06,1.13l0 1.95 -0.62 0 0 -1.83c0,-0.44 -0.23,-0.71 -0.67,-0.71 -0.46,0 -0.74,0.31 -0.74,0.79l0 1.75 -0.62 0 0 -4.15z"/>
   <path class="fil0" d="M63.6 7.38l1.52 0c-0.02,-0.46 -0.31,-0.79 -0.75,-0.79 -0.43,0 -0.74,0.33 -0.77,0.79zm2.1 0.9c-0.08,0.55 -0.61,0.95 -1.3,0.95 -0.89,0 -1.43,-0.6 -1.43,-1.56 0,-0.95 0.55,-1.58 1.4,-1.58 0.84,0 1.37,0.59 1.37,1.51l0 0.21 -2.14 0 0 0.04c0,0.53 0.32,0.88 0.81,0.88 0.36,0 0.62,-0.18 0.7,-0.45l0.59 0z"/>
  </g>
 </g>
</svg>
