<?xml version="1.0" encoding="UTF-8"?>
<!DOCTYPE svg PUBLIC "-//W3C//DTD SVG 1.1//EN" "http://www.w3.org/Graphics/SVG/1.1/DTD/svg11.dtd">
<!-- Creator: CorelDRAW -->
<svg xmlns="http://www.w3.org/2000/svg" xml:space="preserve" width="207px" height="70px" version="1.1" style="shape-rendering:geometricPrecision; text-rendering:geometricPrecision; image-rendering:optimizeQuality; fill-rule:evenodd; clip-rule:evenodd"
viewBox="0 0 547.17 185.23"
 xmlns:xlink="http://www.w3.org/1999/xlink"
 xmlns:xodm="http://www.corel.com/coreldraw/odm/2003">
 <defs>
  <style type="text/css">
   <![CDATA[
    .fil0 {fill:#2E2C2F;fill-rule:nonzero}
    .fil4 {fill:#34A853;fill-rule:nonzero}
    .fil3 {fill:#4285F4;fill-rule:nonzero}
    .fil1 {fill:#EA4335;fill-rule:nonzero}
    .fil2 {fill:#FBBC04;fill-rule:nonzero}
   ]]>
  </style>
 </defs>
 <g id="Layer_x0020_1">
  <metadata id="CorelCorpID_0Corel-Layer"/>
  <g id="_2369310626320">
   <path class="fil0" d="M524.94 0l-502.71 0c-12.26,0 -22.23,9.96 -22.23,22.23l0 140.77c0,12.26 9.97,22.23 22.23,22.23l502.71 0c12.26,0 22.23,-9.97 22.23,-22.23l0 -140.77c0,-12.27 -9.97,-22.23 -22.23,-22.23l0 0zm0 5.21c9.38,0 17.02,7.63 17.02,17.02l0 140.77c0,9.39 -7.64,17.02 -17.02,17.02l-502.71 0c-9.39,0 -17.03,-7.63 -17.03,-17.02l0 -140.77c0,-9.39 7.64,-17.02 17.03,-17.02l502.71 0z"/>
   <path class="fil0" d="M352.53 119.66l14.63 -6.04c-1.15,-2.27 -3.55,-3.62 -6.09,-3.45 -4.93,0.21 -8.76,4.39 -8.55,9.33 0,0.05 0.01,0.1 0.01,0.16zm17.16 5.87l5.6 3.7c-3.03,4.54 -8.14,7.25 -13.59,7.23 -8.73,0.13 -15.9,-6.84 -16.03,-15.57 0,-0.25 0,-0.49 0.01,-0.74 -0.72,-8.26 5.4,-15.54 13.66,-16.26 6.96,-0.6 13.42,3.68 15.57,10.33l0.74 1.88 -21.76 9c1.39,3.11 4.53,5.08 7.94,4.95 3.23,-0.05 6.19,-1.76 7.86,-4.52zm-28.28 -37.97l0 47.9 -7.18 0 0 -47.9 7.18 0zm-18.93 32.67c0.41,-5.08 -3.37,-9.52 -8.44,-9.94 -0.1,0 -0.2,-0.01 -0.29,-0.02 -5.22,0.18 -9.32,4.55 -9.15,9.78 0,0.06 0.01,0.12 0.01,0.18 -0.24,5.18 3.76,9.57 8.94,9.81 0.06,0 0.13,0.01 0.2,0.01 5.03,-0.2 8.95,-4.43 8.75,-9.46 0,-0.12 -0.01,-0.24 -0.02,-0.36zm6.34 -15.39l0 29.29c0,12.02 -7.16,16.97 -15.59,16.97 -6.32,0.05 -12.05,-3.71 -14.52,-9.52l6.17 -2.72c1.31,3.39 4.52,5.68 8.16,5.79 5.44,0 8.76,-3.34 8.76,-9.57l0 -2.34 -0.27 0c-2.16,2.41 -5.26,3.77 -8.49,3.72 -9.01,0 -16.32,-7.3 -16.32,-16.31 0,-9.01 7.31,-16.32 16.32,-16.32 3.26,-0.07 6.38,1.25 8.6,3.64l0.27 0 0 -2.72 6.91 0 0 0.09zm-42.35 15.31c0.48,-5.01 -3.2,-9.46 -8.21,-9.93 -5.01,-0.48 -9.45,3.2 -9.93,8.2 -0.05,0.58 -0.05,1.16 0,1.73 -0.48,5.01 3.2,9.45 8.21,9.93 5.01,0.47 9.45,-3.2 9.93,-8.21 0.05,-0.57 0.05,-1.15 0,-1.72zm7.04 0c0,8.9 -7.22,16.12 -16.12,16.12 -8.91,0 -16.13,-7.22 -16.13,-16.12 0,-8.91 7.22,-16.13 16.13,-16.13 8.9,0 16.12,7.22 16.12,16.13zm-43.24 0c0.48,-5.01 -3.2,-9.46 -8.21,-9.93 -5.01,-0.48 -9.45,3.2 -9.93,8.2 -0.05,0.58 -0.05,1.16 0,1.73 -0.47,5.01 3.2,9.45 8.21,9.93 5.01,0.47 9.46,-3.2 9.93,-8.21 0.06,-0.57 0.06,-1.15 0,-1.72zm7.07 0c0.37,8.91 -6.56,16.43 -15.47,16.8 -8.92,0.37 -16.44,-6.56 -16.81,-15.48 -0.02,-0.44 -0.02,-0.88 0,-1.32 -0.37,-8.92 6.56,-16.44 15.48,-16.81 8.91,-0.36 16.44,6.57 16.8,15.48 0.02,0.45 0.02,0.89 0,1.33zm-59.91 16.31c-14.08,0.05 -25.59,-11.23 -25.81,-25.31 0.22,-14.09 11.73,-25.37 25.81,-25.32 6.51,-0.11 12.8,2.41 17.43,6.99l-4.92 4.86c-3.34,-3.27 -7.84,-5.09 -12.51,-5.06 -10.17,0 -18.41,8.25 -18.41,18.42 0,10.16 8.24,18.41 18.41,18.41 4.8,0.2 9.47,-1.65 12.84,-5.09 2.21,-2.38 3.54,-5.45 3.78,-8.7l-16.62 0 0 -6.72 23.39 0c0.25,1.43 0.37,2.88 0.35,4.33 0.24,6.02 -1.93,11.89 -6.01,16.31 -4.66,4.72 -11.11,7.22 -17.73,6.88zm257.88 -6.47c-2.34,0 -5.61,-1.19 -5.61,-4.08 0,-3.7 4.06,-5.11 7.59,-5.11 2.28,-0.06 4.54,0.49 6.53,1.6 -0.54,4.3 -4.18,7.54 -8.51,7.59l0 0zm0.84 -26.27c-5.33,-0.31 -10.34,2.58 -12.76,7.34l6.37 2.72c1.29,-2.35 3.85,-3.72 6.53,-3.48 3.76,-0.38 7.12,2.37 7.5,6.14 0,0.01 0,0.02 0,0.04l0 0.49c-2.28,-1.24 -4.83,-1.88 -7.42,-1.88 -6.83,0 -13.79,3.75 -13.79,10.88 0,6.42 5.58,10.55 11.88,10.55 3.66,0.23 7.15,-1.56 9.09,-4.68l0.27 0 0 3.7 6.96 0 0 -18.44c0,-8.51 -6.36,-13.24 -14.57,-13.24l-0.06 -0.14zm-44.19 6.88l-10.15 0 0 -16.32 10.17 0c4.51,0 8.16,3.66 8.16,8.16 0,4.51 -3.65,8.16 -8.16,8.16l-0.02 0zm-0.2 -23.09l-17.13 0 0 47.92 7.18 0 0 -18.14 9.98 0c8.39,0.29 15.43,-6.28 15.72,-14.67 0,-0.07 0,-0.14 0,-0.2 -0.17,-8.42 -7.13,-15.09 -15.54,-14.91 -0.07,0 -0.14,0 -0.21,0zm26.82 0l-7.13 0 0 47.92 7.13 0 0 -47.92zm57.66 17.24l-8.16 20.78 -0.24 0 -8.52 -20.78 -7.7 0 12.76 29.05 -7.29 16.15 7.48 0 19.66 -45.2 -7.99 0z"/>
   <path class="fil1" d="M89.67 90.14l-46.32 48.53c1.88,6.68 8.82,10.57 15.5,8.68 1.01,-0.28 1.98,-0.7 2.89,-1.22l52.12 -29.69 -24.19 -26.3z"/>
   <path class="fil2" d="M136.5 81.89l-22.54 -12.91 -25.36 22.27 25.47 25.12 22.36 -12.77c6,-3.14 8.32,-10.54 5.18,-16.54 -1.16,-2.2 -2.96,-4.01 -5.18,-5.17l0.07 0z"/>
   <path class="fil3" d="M43.35 46.58c-0.28,1.04 -0.42,2.1 -0.42,3.18l0 85.74c0,1.07 0.14,2.14 0.42,3.17l47.91 -47.29 -47.91 -44.8z"/>
   <path class="fil4" d="M90.01 92.63l23.95 -23.65 -52.04 -29.82c-1.96,-1.15 -4.19,-1.75 -6.46,-1.76 -5.63,-0.01 -10.58,3.73 -12.11,9.15l46.66 46.08z"/>
   <path class="fil0" d="M183.72 69.42c-7.38,0 -12.1,-5.38 -12.1,-13.79 0,-8.26 4.7,-13.51 12.1,-13.51 5.72,0 10.06,3.39 11.05,8.64l-3.46 0c-1.1,-3.57 -3.87,-5.6 -7.59,-5.6 -5.44,0 -8.71,3.92 -8.71,10.46 0,6.64 3.33,10.76 8.71,10.76 4.69,0 7.91,-3.04 7.91,-7.47l0 -0.48 -7.45 0 0 -2.89 10.75 0 0 2.51c0,7.14 -4.16,11.37 -11.21,11.37z"/>
   <polygon class="fil0" points="215.52,68.98 199.14,68.98 199.14,42.56 215.52,42.56 215.52,45.52 202.44,45.52 202.44,54 214.84,54 214.84,56.93 202.44,56.93 202.44,66.02 215.52,66.02 "/>
   <polygon class="fil0" points="226.54,68.98 226.54,45.52 218.21,45.52 218.21,42.56 238.17,42.56 238.17,45.52 229.84,45.52 229.84,68.98 "/>
   <polygon class="fil0" points="249.34,68.98 252.64,68.98 252.64,42.56 249.34,42.56 "/>
   <polygon class="fil0" points="257.77,68.98 257.77,42.56 260.97,42.56 275.44,63.31 275.6,63.31 275.6,42.56 278.86,42.56 278.86,68.98 275.66,68.98 261.19,48.31 261.02,48.31 261.02,68.98 "/>
   <path class="fil0" d="M294.04 55.78c0,6.5 3.39,10.6 8.79,10.6 5.41,0 8.79,-4.1 8.79,-10.6 0,-6.52 -3.38,-10.62 -8.79,-10.62 -5.4,0 -8.79,4.1 -8.79,10.62zm20.97 0c0,8.39 -4.68,13.64 -12.18,13.64 -7.49,0 -12.17,-5.25 -12.17,-13.64 0,-8.39 4.68,-13.66 12.17,-13.66 7.5,0 12.18,5.27 12.18,13.66z"/>
   <polygon class="fil0" points="319.12,68.98 319.12,42.56 322.32,42.56 336.79,63.31 336.95,63.31 336.95,42.56 340.21,42.56 340.21,68.98 337.01,68.98 322.54,48.31 322.38,48.31 322.38,68.98 "/>
  </g>
 </g>
</svg>
