<?xml version="1.0" encoding="UTF-8"?>
<!DOCTYPE svg PUBLIC "-//W3C//DTD SVG 1.1//EN" "http://www.w3.org/Graphics/SVG/1.1/DTD/svg11.dtd">
<!-- Creator: CorelDRAW -->
<svg xmlns="http://www.w3.org/2000/svg" xml:space="preserve" width="603px" height="100px" version="1.1" style="shape-rendering:geometricPrecision; text-rendering:geometricPrecision; image-rendering:optimizeQuality; fill-rule:evenodd; clip-rule:evenodd"
viewBox="0 0 3255.04 539.6"
 xmlns:xlink="http://www.w3.org/1999/xlink"
 xmlns:xodm="http://www.corel.com/coreldraw/odm/2003">
 <defs>
  <style type="text/css">
   <![CDATA[
    .fil1 {fill:#2E2C2F;fill-rule:nonzero}
    .fil5 {fill:#34A853;fill-rule:nonzero}
    .fil4 {fill:#4285F4;fill-rule:nonzero}
    .fil2 {fill:#EA4335;fill-rule:nonzero}
    .fil3 {fill:#FBBC04;fill-rule:nonzero}
    .fil0 {fill:url(#id0);fill-rule:nonzero}
   ]]>
  </style>
  <linearGradient id="id0" gradientUnits="objectBoundingBox" x1="0%" y1="50%" x2="100%" y2="50%">
   <stop offset="0" style="stop-opacity:1; stop-color:#E6E6E6"/>
   <stop offset="1" style="stop-opacity:1; stop-color:white"/>
  </linearGradient>
 </defs>
 <g id="Layer_x0020_1">
  <metadata id="CorelCorpID_0Corel-Layer"/>
  <path class="fil0" d="M1529.24 0l-1464.49 0c-35.72,0 -64.75,29.03 -64.75,64.75l0 410.1c0,35.72 29.03,64.75 64.75,64.75l1464.49 0c35.72,0 64.75,-29.03 64.75,-64.75l0 -410.1c0,-35.72 -29.03,-64.75 -64.75,-64.75l0 0z"/>
  <path class="fil0" d="M3190.29 0l-1464.49 0c-35.72,0 -64.75,29.03 -64.75,64.75l0 410.1c0,35.72 29.03,64.75 64.75,64.75l1464.49 0c35.72,0 64.75,-29.03 64.75,-64.75l0 -410.1c0,-35.72 -29.03,-64.75 -64.75,-64.75l0 0z"/>
  <g id="_2369000674816">
   <path class="fil1" d="M1529.26 0l-1464.49 0c-35.72,0 -64.76,29.03 -64.76,64.75l0 410.1c0,35.72 29.04,64.75 64.76,64.75l1464.49 0c35.72,0 64.73,-29.03 64.73,-64.75l0 -410.1c0,-35.72 -29.01,-64.75 -64.73,-64.75l0 0zm0 15.16c27.33,0 49.59,22.25 49.59,49.59l0 410.1c0,27.34 -22.26,49.59 -49.59,49.59l-1464.49 0c-27.35,0 -49.59,-22.25 -49.59,-49.59l0 -410.1c0,-27.34 22.24,-49.59 49.59,-49.59l1464.49 0z"/>
   <path class="fil1" d="M263.07 169.34c-2.16,-17.38 6.48,-35.83 16.09,-47.16 10.89,-12.84 29.9,-22.67 45,-23.32 1.95,18.14 -5.18,35.94 -15.65,49.01 -10.89,12.83 -28.38,22.76 -45.44,21.47z"/>
   <path class="fil1" d="M387.83 323.13c-0.21,1.07 -6.25,22.13 -21.25,43.38 -12.63,18.78 -25.7,37.13 -46.63,37.44 -20.29,0.44 -27.09,-11.97 -50.4,-11.97 -23.41,0 -30.75,11.66 -50.19,12.41 -19.96,0.75 -35.06,-20.07 -48.13,-38.63 -25.99,-38 -46.19,-107.06 -19.11,-154.01 13.07,-23.09 37.13,-37.88 62.72,-38.31 19.85,-0.31 38.42,13.49 50.62,13.49 11.98,0 34.85,-16.62 58.36,-14.14 9.84,0.34 37.89,4 56.01,30.33 -1.38,0.86 -33.33,19.64 -32.99,58.28 0.42,46.18 40.46,61.51 40.99,61.73z"/>
   <path class="fil1" d="M524.86 335.21l13.27 -41.55c3.46,-13.17 5.94,-23.19 7.58,-29.99l0.52 0c3.88,15.75 6.59,25.67 7.99,29.99l13.49 41.55 -42.85 0zm37.88 -92.92l-31.72 0 -51.26 159.4 26.44 0 14.13 -46.84 51.81 0 14.89 46.84 27.19 0 -51.48 -159.4z"/>
   <path class="fil1" d="M711.89 373.09c-5.38,7.34 -12.83,11.12 -22.44,11.12 -8.2,0 -14.9,-2.91 -19.98,-8.63 -5.07,-5.73 -7.65,-12.85 -7.65,-21.16l0 -19.21c0,-2.05 0.42,-4.64 1.2,-7.76 1.48,-6.81 4.94,-12.21 10.02,-16.41 5.19,-4.1 10.91,-6.26 17.16,-6.26 9.28,0 16.72,3.78 22.24,11.34 5.05,7.22 7.55,16.4 7.55,27.62 0,12.19 -2.7,21.91 -8.1,29.35zm20.29 -72.63c-9.06,-10.68 -20.29,-16.07 -33.88,-16.07 -17.28,0 -30.23,6.9 -38.74,20.61l-0.44 0 -1.41 -18.25 -22.45 0c0.65,12.95 0.99,25.47 0.99,37.78l0 123.79 25.57 0 0 -60.33c6.69,10.9 17.58,16.3 32.81,16.3 14.04,0 25.88,-4.98 35.39,-15.12 10.7,-11.33 15.99,-26.75 15.99,-46.29 0,-17.59 -4.56,-31.63 -13.83,-42.42z"/>
   <path class="fil1" d="M844 373.09c-5.29,7.34 -12.85,11.12 -22.45,11.12 -8.21,0 -14.9,-2.91 -19.97,-8.63 -5.08,-5.73 -7.66,-12.85 -7.66,-21.16l0 -19.21c0,-2.05 0.44,-4.64 1.18,-7.76 1.61,-6.81 4.97,-12.21 10.04,-16.41 5.18,-4.1 10.89,-6.26 17.16,-6.26 9.27,0 16.72,3.78 22.22,11.34 5.09,7.22 7.57,16.4 7.57,27.62 0,12.19 -2.6,21.91 -8.09,29.35zm20.28 -72.63c-9.06,-10.68 -20.28,-16.07 -33.9,-16.07 -17.24,0 -30.21,6.9 -38.73,20.61l-0.44 0 -1.4 -18.25 -22.45 0c0.65,12.95 0.97,25.47 0.97,37.78l0 123.79 25.59 0 0 -60.33c6.69,10.9 17.6,16.3 32.81,16.3 14.01,0 25.89,-4.98 35.39,-15.12 10.68,-11.33 15.98,-26.75 15.98,-46.29 0,-17.59 -4.53,-31.63 -13.82,-42.42z"/>
   <path class="fil1" d="M1016.11 329.28c6.59,7.44 9.83,16.73 9.83,27.74 0,13.59 -4.75,24.6 -14.14,33.13 -10.35,9.27 -24.8,13.92 -43.37,13.92 -17.18,0 -30.87,-3.35 -41.24,-9.93l5.94 -21.27c11.22,6.58 23.54,9.94 36.92,9.94 9.61,0 17.16,-2.17 22.45,-6.48 5.38,-4.32 8.09,-10.14 8.09,-17.37 0,-6.48 -2.28,-11.87 -6.58,-16.3 -4.43,-4.42 -11.77,-8.52 -22.03,-12.3 -28.17,-10.47 -42.08,-25.69 -42.08,-45.66 0,-13.05 4.95,-23.74 14.77,-32.15 9.84,-8.31 22.88,-12.52 39.18,-12.52 14.46,0 26.56,2.48 36.15,7.55l-6.47 20.73c-9.06,-4.86 -19.21,-7.35 -30.64,-7.35 -8.96,0 -16.09,2.27 -21.17,6.58 -4.2,4 -6.36,8.75 -6.36,14.47 0,6.26 2.5,11.55 7.35,15.54 4.19,3.78 11.98,7.88 23.2,12.3 13.7,5.51 23.72,11.98 30.2,19.43z"/>
   <path class="fil1" d="M1082.39 286.75l28.17 0 0 19.22 -28.17 0 0 55.8c0,14.13 4.97,21.25 14.89,21.25 4.53,0 8.31,-0.43 11.33,-1.19l0.75 19.44c-5.07,1.83 -11.64,2.8 -19.84,2.8 -10.15,0 -17.92,-3.14 -23.64,-9.29 -5.71,-6.15 -8.54,-16.51 -8.54,-30.97l0 -57.95 -16.72 0 0 -19.11 16.72 0 0 -21.04 25.05 -7.55 0 28.59z"/>
   <path class="fil1" d="M1203.81 371.26c-5.63,9.28 -13.28,13.92 -23,13.92 -9.92,0 -17.7,-4.54 -23.2,-13.71 -4.53,-7.44 -6.8,-16.5 -6.8,-27.09 0,-10.89 2.17,-20.07 6.8,-27.62 5.29,-9.18 13.15,-13.71 23.41,-13.71 9.95,0 17.6,4.53 22.99,13.71 4.53,7.55 6.8,16.51 6.8,27.09 0,10.57 -2.37,19.63 -7,27.41zm18.77 -69.93c-10.26,-11.23 -23.85,-16.84 -40.7,-16.84 -17.47,0 -31.4,5.72 -41.75,17.05 -10.27,11.33 -15.43,25.91 -15.43,43.72 0,17.04 4.95,31.18 14.98,42.29 10.05,11.12 23.53,16.74 40.38,16.74 17.47,0 31.5,-5.83 42.08,-17.5 10.03,-11.33 15.12,-25.78 15.12,-43.49 0,-17.15 -4.86,-31.18 -14.68,-41.97z"/>
   <path class="fil1" d="M1320.25 284.82l0.08 24.38c-2.47,-0.43 -5.18,-0.64 -8.07,-0.64 -8.95,0 -15.96,3.35 -20.83,10.14 -4.22,5.93 -6.38,13.6 -6.38,22.66l0 60.33 -25.57 0 0 -78.78c0,-13.28 -0.21,-25.36 -0.75,-36.16l22.23 0 0.97 22.02 0.77 0c2.69,-7.55 6.88,-13.71 12.71,-18.24 5.73,-4.09 11.88,-6.14 18.47,-6.14 2.36,0 4.53,0.21 6.37,0.43z"/>
   <path class="fil1" d="M1357.05 332.09c0.76,-7.67 3.33,-14.36 7.55,-19.87 5.18,-6.9 11.98,-10.36 20.28,-10.36 9.07,0 15.89,3.57 20.29,10.69 3.46,5.5 5.19,12.08 4.97,19.64l-53.09 -0.1zm77.49 6.68c0,-14.35 -3.46,-26.33 -10.26,-36.27 -8.43,-12.29 -21.04,-18.44 -37.57,-18.44 -16.82,0 -30.21,6.15 -40.13,18.44 -9.5,11.56 -14.24,26.03 -14.24,43.29 0,17.59 5.07,31.73 15.2,42.2 10.16,10.47 24.17,15.75 41.98,15.75 14.79,0 27.63,-2.37 38.54,-7.13l-3.99 -17.68c-9.29,3.56 -19.65,5.39 -30.98,5.39 -10.26,0 -18.56,-2.7 -25.03,-7.99 -7.13,-5.94 -10.8,-14.68 -11.12,-26.01l76.62 0c0.65,-3.12 0.98,-7.02 0.98,-11.55z"/>
   <path class="fil1" d="M517.83 184.77l16.3 0c18.88,0 29.3,-11.54 29.3,-32.57 0,-20.98 -10.48,-32.58 -29.3,-32.58l-16.3 0 0 65.15zm17.6 -77.06c26.45,0 42.13,16.29 42.13,44.36 0,28.14 -15.61,44.67 -42.13,44.67l-31.4 0 0 -89.03 31.4 0z"/>
   <path class="fil1" d="M634.19 164.29c0,-14.38 -6.77,-22.64 -17.2,-22.64 -10.42,0 -17.22,8.26 -17.22,22.64 0,14.44 6.8,22.71 17.22,22.71 10.49,0 17.2,-8.27 17.2,-22.71zm-47.99 0c0,-20.85 12.27,-33.62 30.79,-33.62 18.5,0 30.78,12.77 30.78,33.62 0,20.92 -12.21,33.68 -30.78,33.68 -18.59,0 -30.79,-12.76 -30.79,-33.68z"/>
   <polygon class="fil1" points="725.7,196.74 711.81,196.74 698.18,148.12 697.86,148.12 684.35,196.74 670.59,196.74 652.76,131.84 666.1,131.84 677.93,182.92 678.19,182.92 691.69,131.84 704.53,131.84 718.11,182.92 718.42,182.92 730.25,131.84 743.47,131.84 "/>
   <path class="fil1" d="M751.61 131.84l12.71 0 0 10.86 0.29 0c3.53,-7.41 10.45,-11.98 20.44,-11.98 14.3,0 22.5,9.14 22.5,24.01l0 42.01 -13.38 0 0 -39.42c0,-9.75 -4.55,-15.12 -13.83,-15.12 -9.37,0 -15.42,6.67 -15.42,16.72l0 37.82 -13.31 0 0 -64.9z"/>
   <polygon class="fil1" points="820.9,196.74 834.22,196.74 834.22,107.71 820.9,107.71 "/>
   <path class="fil1" d="M893.02 164.29c0,-14.38 -6.8,-22.64 -17.23,-22.64 -10.42,0 -17.2,8.26 -17.2,22.64 0,14.44 6.78,22.71 17.2,22.71 10.49,0 17.23,-8.27 17.23,-22.71zm-48 0c0,-20.85 12.27,-33.62 30.77,-33.62 18.51,0 30.8,12.77 30.8,33.62 0,20.92 -12.23,33.68 -30.8,33.68 -18.56,0 -30.77,-12.76 -30.77,-33.68z"/>
   <path class="fil1" d="M956.18 172.43l0 -5.12 -15.96 0.99c-7.98,0.55 -12.48,4.07 -12.48,9.62 0,5.68 4.7,9.38 11.85,9.38 9.32,0 16.59,-6.41 16.59,-14.87zm-41.89 5.86c0,-11.35 8.7,-18.32 24.12,-19.18l17.77 -1.05 0 -5c0,-7.22 -4.87,-11.54 -13.01,-11.54 -7.71,0 -12.52,3.71 -13.7,9.5l-12.58 0c0.74,-11.72 10.74,-20.35 26.77,-20.35 15.74,0 25.8,8.32 25.8,21.34l0 44.73 -12.78 0 0 -10.67 -0.31 0c-3.75,7.22 -11.95,11.78 -20.47,11.78 -12.72,0 -21.61,-7.9 -21.61,-19.56z"/>
   <path class="fil1" d="M993.08 164.29c0,13.7 6.61,22.27 17.16,22.27 10.24,0 17.08,-8.7 17.08,-22.27 0,-13.45 -6.84,-22.28 -17.08,-22.28 -10.55,0 -17.16,8.64 -17.16,22.28zm-13.64 0c0,-20.48 10.87,-33.5 27.15,-33.5 9.32,0 16.72,4.69 20.37,11.84l0.23 0 0 -34.92 13.41 0 0 89.03 -12.97 0 0 -11.04 -0.25 0c-3.82,7.41 -11.22,12.15 -20.66,12.15 -16.41,0 -27.28,-13.08 -27.28,-33.56z"/>
   <path class="fil1" d="M1124.93 164.29c0,-14.38 -6.8,-22.64 -17.23,-22.64 -10.42,0 -17.2,8.26 -17.2,22.64 0,14.44 6.78,22.71 17.2,22.71 10.49,0 17.23,-8.27 17.23,-22.71zm-48 0c0,-20.85 12.27,-33.62 30.77,-33.62 18.53,0 30.8,12.77 30.8,33.62 0,20.92 -12.21,33.68 -30.8,33.68 -18.56,0 -30.77,-12.76 -30.77,-33.68z"/>
   <path class="fil1" d="M1148.8 131.84l12.71 0 0 10.86 0.32 0c3.5,-7.41 10.43,-11.98 20.41,-11.98 14.3,0 22.53,9.14 22.53,24.01l0 42.01 -13.4 0 0 -39.42c0,-9.75 -4.56,-15.12 -13.81,-15.12 -9.38,0 -15.44,6.67 -15.44,16.72l0 37.82 -13.32 0 0 -64.9z"/>
   <path class="fil1" d="M1260.46 116.48l0 15.36 12.34 0 0 10.55 -12.34 0 0 35.78c0,5.62 2.48,8.15 7.92,8.15 1.34,0 3.5,-0.13 4.38,-0.31l0 10.54c-1.49,0.38 -4.45,0.62 -7.41,0.62 -13.15,0 -18.26,-4.99 -18.26,-17.52l0 -37.26 -9.45 0 0 -10.55 9.45 0 0 -15.36 13.37 0z"/>
   <path class="fil1" d="M1284.24 107.71l13.19 0 0 34.99 0.32 0c3.56,-7.59 10.65,-11.98 20.53,-11.98 14.24,0 22.76,9.5 22.76,24.19l0 41.83 -13.38 0 0 -39.24c0,-9.56 -4.81,-15.3 -14.18,-15.3 -9.88,0 -15.93,6.79 -15.93,17.03l0 37.51 -13.31 0 0 -89.03z"/>
   <path class="fil1" d="M1364.5 158.31l32.45 0c-0.32,-9.93 -6.61,-16.91 -15.93,-16.91 -9.31,0 -15.85,7.1 -16.52,16.91zm45.03 19.37c-1.86,11.84 -13.09,20.29 -27.96,20.29 -19.04,0 -30.59,-12.89 -30.59,-33.37 0,-20.36 11.71,-33.93 30.04,-33.93 18.03,0 29.25,12.7 29.25,32.38l0 4.57 -45.83 0 0 0.8c0,11.29 6.77,18.76 17.45,18.76 7.59,0 13.19,-3.83 14.99,-9.5l12.65 0z"/>
  </g>
  <g id="_2369000685040">
   <path class="fil1" d="M3190.29 0l-1464.49 0c-35.72,0 -64.75,29.03 -64.75,64.75l0 410.1c0,35.72 29.03,64.75 64.75,64.75l1464.49 0c35.72,0 64.75,-29.03 64.75,-64.75l0 -410.1c0,-35.72 -29.03,-64.75 -64.75,-64.75l0 0zm0 15.16c27.34,0 49.58,22.25 49.58,49.59l0 410.1c0,27.34 -22.24,49.59 -49.58,49.59l-1464.49 0c-27.35,0 -49.59,-22.25 -49.59,-49.59l0 -410.1c0,-27.34 22.24,-49.59 49.59,-49.59l1464.49 0z"/>
   <path class="fil1" d="M2688.03 348.58l42.62 -17.58c-3.36,-6.6 -10.34,-10.56 -17.74,-10.07 -14.38,0.63 -25.53,12.8 -24.9,27.19 0,0.16 0.01,0.31 0.02,0.46zm50 17.12l16.32 10.78c-8.86,13.2 -23.72,21.11 -39.62,21.07 -25.42,0.36 -46.32,-19.95 -46.69,-45.37 0,-0.72 0,-1.44 0.03,-2.17 -2.09,-24.06 15.73,-45.26 39.79,-47.35 20.28,-1.75 39.1,10.71 45.38,30.08l2.14 5.47 -63.39 26.22c4.04,9.08 13.21,14.8 23.14,14.42 9.39,-0.14 18.04,-5.12 22.9,-13.15zm-82.4 -110.61l0 139.53 -20.92 0 0 -139.53 20.92 0zm-55.14 95.16c1.19,-14.79 -9.82,-27.74 -24.6,-28.94 -0.28,-0.03 -0.56,-0.04 -0.84,-0.06 -15.22,0.51 -27.15,13.25 -26.64,28.47 0,0.18 0.01,0.35 0.02,0.53 -0.7,15.08 10.95,27.87 26.03,28.58 0.19,0.01 0.39,0.02 0.59,0.02 14.65,-0.57 26.06,-12.9 25.49,-27.55 -0.01,-0.35 -0.03,-0.7 -0.05,-1.05zm18.45 -44.84l0 85.32c0,35.02 -20.83,49.44 -45.39,49.44 -18.42,0.16 -35.11,-10.79 -42.31,-27.73l17.98 -7.92c3.81,9.89 13.18,16.54 23.77,16.88 15.84,0 25.51,-9.75 25.51,-27.89l0 -6.82 -0.79 0c-6.28,7.02 -15.3,10.98 -24.72,10.86 -26.25,0 -47.54,-21.29 -47.54,-47.54 0,-26.25 21.29,-47.53 47.54,-47.53 9.48,-0.22 18.6,3.65 25.04,10.61l0.79 0 0 -7.92 20.12 0 0 0.24zm-123.36 44.6c1.39,-14.59 -9.32,-27.54 -23.91,-28.93 -14.59,-1.39 -27.54,9.32 -28.93,23.91 -0.16,1.67 -0.16,3.35 0,5.02 -1.39,14.6 9.32,27.55 23.91,28.94 14.59,1.38 27.55,-9.33 28.93,-23.92 0.16,-1.67 0.16,-3.35 0,-5.02zm20.53 0c0,25.95 -21.04,46.98 -46.99,46.98 -25.94,0 -46.98,-21.03 -46.98,-46.98 0,-25.95 21.04,-46.98 46.98,-46.98 25.95,0 46.99,21.03 46.99,46.98zm-125.97 0c1.37,-14.59 -9.33,-27.54 -23.92,-28.93 -14.59,-1.39 -27.55,9.32 -28.94,23.91 -0.15,1.67 -0.15,3.35 0,5.02 -1.38,14.6 9.33,27.55 23.92,28.94 14.6,1.38 27.55,-9.33 28.94,-23.92 0.15,-1.67 0.15,-3.35 0,-5.02zm20.59 0c1.07,25.97 -19.12,47.89 -45.09,48.96 -25.97,1.06 -47.88,-19.13 -48.95,-45.09 -0.06,-1.29 -0.06,-2.58 0,-3.87 -1.07,-25.97 19.12,-47.88 45.09,-48.95 25.96,-1.07 47.88,19.12 48.95,45.09 0.05,1.29 0.05,2.58 0,3.86zm-174.54 47.54c-41.02,0.13 -74.54,-32.74 -75.19,-73.76 0.65,-41.02 34.17,-73.9 75.19,-73.77 18.98,-0.31 37.28,7.03 50.79,20.37l-14.34 14.18c-9.73,-9.53 -22.83,-14.83 -36.45,-14.74 -29.62,0 -53.64,24.02 -53.64,53.64 0,29.62 24.02,53.64 53.64,53.64 14,0.57 27.59,-4.81 37.4,-14.82 6.44,-6.95 10.33,-15.89 11.01,-25.35l-48.41 0 0 -19.57 68.13 0c0.75,4.15 1.1,8.38 1.03,12.6 0.69,17.53 -5.61,34.63 -17.5,47.53 -13.58,13.73 -32.37,21.02 -51.66,20.05zm751.25 -18.86c-6.81,0 -16.33,-3.48 -16.33,-11.88 0,-10.78 11.81,-14.9 22.11,-14.9 6.64,-0.17 13.21,1.44 19.02,4.68 -1.58,12.52 -12.18,21.96 -24.8,22.1l0 0zm2.45 -76.53c-15.54,-0.9 -30.12,7.51 -37.16,21.39l18.54 7.92c3.76,-6.86 11.23,-10.84 19.02,-10.14 10.97,-1.1 20.76,6.9 21.85,17.87 0.01,0.04 0.02,0.08 0.02,0.12l0 1.42c-6.65,-3.59 -14.08,-5.47 -21.63,-5.47 -19.89,0 -40.17,10.94 -40.17,31.7 0,18.7 16.24,30.74 34.62,30.74 10.66,0.68 20.82,-4.56 26.46,-13.63l0.8 0 0 10.77 20.28 0 0 -53.71c0,-24.8 -18.54,-38.58 -42.47,-38.58l-0.16 -0.4zm-128.74 20.04l-29.56 0 0 -47.53 29.63 0c13.13,0 23.78,10.63 23.78,23.76 0,13.13 -10.65,23.77 -23.78,23.77l-0.07 0zm-0.56 -67.26l-49.91 0 0 139.6 20.91 0 0 -52.85 29.08 0c24.45,0.84 44.94,-18.3 45.78,-42.74 0.01,-0.2 0.01,-0.4 0.01,-0.59 -0.51,-24.51 -20.78,-43.95 -45.28,-43.44 -0.2,0.01 -0.39,0.01 -0.59,0.02zm78.12 0l-20.76 0 0 139.6 20.76 0 0 -139.6zm167.97 50.23l-23.77 60.53 -0.71 0 -24.81 -60.53 -22.42 0 37.16 84.62 -21.23 47.05 21.78 0 57.29 -131.67 -23.29 0z"/>
   <path class="fil2" d="M1922.26 262.6l-134.94 141.38c5.49,19.45 25.71,30.77 45.17,25.28 2.94,-0.83 5.77,-2.03 8.42,-3.57l151.84 -86.47 -70.49 -76.62z"/>
   <path class="fil3" d="M2058.7 238.57l-65.65 -37.61 -73.91 64.86 74.21 73.2 65.16 -37.21c17.46,-9.14 24.21,-30.71 15.06,-48.18 -3.37,-6.43 -8.62,-11.69 -15.06,-15.06l0.19 0z"/>
   <path class="fil4" d="M1787.32 135.71c-0.81,3.01 -1.22,6.12 -1.2,9.25l0 249.76c0,3.12 0.41,6.24 1.2,9.26l139.57 -137.76 -139.57 -130.51z"/>
   <path class="fil5" d="M1923.26 269.84l69.79 -68.88 -151.63 -86.88c-5.71,-3.34 -12.19,-5.1 -18.81,-5.12 -16.4,-0.04 -30.83,10.86 -35.29,26.64l135.94 134.24z"/>
   <path class="fil1" d="M2196.26 202.24c-21.49,0 -35.26,-15.68 -35.26,-40.17 0,-24.06 13.71,-39.37 35.26,-39.37 16.65,0 29.29,9.87 32.17,25.18l-10.08 0c-3.2,-10.4 -11.25,-16.32 -22.09,-16.32 -15.84,0 -25.39,11.41 -25.39,30.46 0,19.37 9.71,31.37 25.39,31.37 13.66,0 23.05,-8.86 23.05,-21.77l0 -1.39 -21.71 0 0 -8.42 31.31 0 0 7.31c0,20.79 -12.11,33.12 -32.65,33.12z"/>
   <polygon class="fil1" points="2288.88,200.96 2241.19,200.96 2241.19,123.98 2288.88,123.98 2288.88,132.62 2250.79,132.62 2250.79,157.32 2286.91,157.32 2286.91,165.86 2250.79,165.86 2250.79,192.32 2288.88,192.32 "/>
   <polygon class="fil1" points="2321,200.96 2321,132.62 2296.72,132.62 2296.72,123.98 2354.87,123.98 2354.87,132.62 2330.6,132.62 2330.6,200.96 "/>
   <polygon class="fil1" points="2387.42,200.96 2397.02,200.96 2397.02,123.98 2387.42,123.98 "/>
   <polygon class="fil1" points="2411.96,200.96 2411.96,123.98 2421.3,123.98 2463.44,184.42 2463.92,184.42 2463.92,123.98 2473.42,123.98 2473.42,200.96 2464.08,200.96 2421.94,140.73 2421.46,140.73 2421.46,200.96 "/>
   <path class="fil1" d="M2517.65 162.5c0,18.94 9.87,30.89 25.61,30.89 15.73,0 25.6,-11.95 25.6,-30.89 0,-18.99 -9.87,-30.94 -25.6,-30.94 -15.74,0 -25.61,11.95 -25.61,30.94zm61.08 0c0,24.43 -13.65,39.74 -35.47,39.74 -21.82,0 -35.48,-15.31 -35.48,-39.74 0,-24.44 13.66,-39.8 35.48,-39.8 21.82,0 35.47,15.36 35.47,39.8z"/>
   <polygon class="fil1" points="2590.69,200.96 2590.69,123.98 2600.02,123.98 2642.17,184.42 2642.65,184.42 2642.65,123.98 2652.15,123.98 2652.15,200.96 2642.81,200.96 2600.66,140.73 2600.18,140.73 2600.18,200.96 "/>
  </g>
 </g>
</svg>
