<?xml version="1.0" encoding="utf-8"?>
<!-- Generator: Adobe Illustrator 22.1.0, SVG Export Plug-In . SVG Version: 6.00 Build 0)  -->
<svg version="1.1" id="Слой_1" xmlns="http://www.w3.org/2000/svg" xmlns:xlink="http://www.w3.org/1999/xlink" x="0px" y="0px"
	 viewBox="0 0 500 500" style="enable-background:new 0 0 500 500;" xml:space="preserve">
<style type="text/css">
	.st0{fill:#399238;}
	.st1{fill:#F2762E;}
	.st2{fill:#F9C295;}
</style>
<g>
	<path class="st0" d="M304.4,208.4c-2.2-0.5-5.5,5.4-9.9,13.3c-1,1.8-1.8,3.3-2.5,4.7c-5.9-6.4-11.7-12.7-17.6-19.1
		c-4.5,21.8-5.9,32.9-4.1,33.3c1.2,0.3,3.6-3.8,7.4-12.3c0.4-0.8,3.7,6.6,4.3,7.5c3.4,5.2,10.2,8.1,16.1,5.3
		c5.6-2.7,6.9-8.9,7.8-14.6C306.3,224,308.2,209.2,304.4,208.4z"/>
	<path class="st0" d="M373.8,207.1c-3.7-0.1-6.4,1-7.9,1.7c-4.1,1.8-11,6.4-10.3,10.3c0.9,4.9,13.4,6,13.1,7.9
		c-0.2,1.1-4.3,0.6-10.1,3.2c-3.1,1.4-5.3,2.4-5.5,4c-0.4,3.3,7.6,8.8,15.6,8.3c1.1-0.1,9.4-0.6,12.3-6.8c0.3-0.7,1.6-3.3,0.8-6.4
		c-1.6-6.4-10.5-8.3-10-9.9c0.6-2.1,15.9,1.9,17.3-1.5c0.9-2.1-4-6-6.1-7.5C381.8,209.5,378.5,207.3,373.8,207.1z"/>
	<path class="st0" d="M173.7,209.3c-4.8-2.4-9.2-2.2-10.4-2.1c-7,0.4-15.7,4.6-16.9,11.1c-0.3,1.5-0.1,2.9,0.1,3.8
		c-0.4,0.8-0.7,1.7-0.9,2.8c-1,6.6,5.8,13.3,12.4,16c1.1,0.4,5.2,2,10.5,1.3c6.6-0.9,12.9-4.9,12.4-6.8c-0.4-1.7-6.4-0.2-13.7-1.8
		c-5.7-1.2-10.5-4-14.4-7.2c3.6,1.5,8.7,2.6,13.8,2.1c6.1-0.6,12.2-3.4,12-5c-0.2-1.7-7.1-2-13-2.3c-5.6-0.3-15.3-0.7-17.5,0.7
		c0,0-0.1-0.1-0.1-0.1c0-0.2,1.3-0.5,3.8-0.9c1.3-0.9,3.3-2.2,6-3.1c1.7-0.6,5.3-1.6,11.8-0.9c7.4,0.9,12.5,4.2,13.5,2.7
		C184.4,218.2,179.7,212.3,173.7,209.3z"/>
	<path class="st0" d="M224.5,229.8c-1.8-4.9-17.1-3.9-17.5-1.8c-0.3,1.2,4.6,2.6,4.3,4.3c-0.3,1.4-4.1,2.1-7,1.8
		c-1.1-0.1-7.4-0.8-8.8-4.8c-1.4-4.1,3.2-10,7.5-10.5c2.5-0.3,4.5,1.5,6.6,2.6c2.6,1.3,9.8,3.4,11.6-0.1c3.9-7.4-8.3-13.8-13.9-14.5
		c-7.5-0.9-14.4,3.9-17.8,9.8c-0.9,1.6-4.4,8.3-1.5,15.5c3.9,9.5,15.5,10.6,17,10.8c1.6,0.1,8.1,0.6,13.8-3.8
		C220.9,237.4,225.6,232.9,224.5,229.8z"/>
	<path class="st0" d="M265.7,229.8c-1.8-4.9-17.1-3.9-17.5-1.8c-0.3,1.2,4.6,2.6,4.3,4.3c-0.3,1.4-4.1,2.1-7,1.8
		c-1.1-0.1-7.4-0.8-8.8-4.8c-1.4-4.1,3.2-10,7.5-10.5c2.5-0.3,4.5,1.5,6.6,2.6c2.6,1.3,9.8,3.4,11.6-0.1c3.9-7.4-8.6-13.9-13.9-14.5
		c-7.5-0.9-14.4,3.9-17.8,9.8c-0.9,1.6-4.4,8.3-1.5,15.5c3.9,9.5,15.5,10.6,17,10.8c1.6,0.1,8.1,0.6,13.8-3.8
		C262.1,237.4,266.8,232.9,265.7,229.8z"/>
	<path class="st0" d="M338.5,209.3c-4.8-2.4-9.2-2.2-10.4-2.1c-7,0.4-15.7,4.6-16.9,11.1c-0.3,1.5-0.1,2.9,0.1,3.8
		c-0.4,0.8-0.7,1.7-0.9,2.8c-1,6.6,5.8,13.3,12.4,16c1.1,0.4,5.2,2,10.5,1.3c6.6-0.9,12.9-4.9,12.4-6.8c-0.4-1.7-6.4-0.2-13.7-1.8
		c-5.7-1.2-10.5-4-14.4-7.2c3.6,1.5,8.7,2.6,13.8,2.1c6.1-0.6,12.2-3.4,12-5c-0.2-1.7-7.1-2-13-2.3c-5.6-0.3-15.3-0.7-17.5,0.7
		c0,0-0.1-0.1-0.1-0.1c0-0.2,1.3-0.5,4-0.9c1.2-0.9,3.2-2.2,5.8-3.1c1.8-0.6,5.3-1.6,11.8-0.9c7.4,0.9,12.5,4.2,13.5,2.7
		C349.1,218.2,344.5,212.3,338.5,209.3z"/>
	<path class="st0" d="M411.5,207.6c-3.7-0.1-6.4,1-7.9,1.7c-4.1,1.8-11,6.4-10.3,10.3c0.9,4.9,13.4,6,13.1,7.9
		c-0.2,1.1-4.3,0.6-10.1,3.2c-3.1,1.4-5.3,2.4-5.5,4c-0.4,3.3,7.6,8.8,15.6,8.3c1.1-0.1,9.4-0.6,12.3-6.8c0.3-0.7,1.6-3.3,0.8-6.4
		c-1.6-6.4-10.5-8.3-10-9.9c0.6-2.1,15.9,1.9,17.3-1.5c0.9-2.1-4-6-6.1-7.5C419.5,210,416.2,207.8,411.5,207.6z"/>
	<g>
		<path class="st0" d="M79.5,207.7c10.2,14.7,20.4,29.3,30.6,44c10-14.7,19.9-29.3,29.9-44c-1.5-0.4-9.6-2.5-17.9,2.1
			c-8.5,4.7-10.9,12.9-11.3,14.4c-0.5-1.6-3.7-10.6-13.4-15.1C89.1,205.2,81.5,207.1,79.5,207.7z"/>
		<g>
			<path class="st1" d="M109.8,258.5l22.5-29.9c9.4,7.1,14.9,18.2,14.9,29.9c0,20.5-16.9,37.4-37.4,37.4S72.3,279,72.3,258.5
				c0-11.4,5.2-22.2,14.2-29.3L109.8,258.5z"/>
			<circle class="st2" cx="134.2" cy="241.9" r="2.9"/>
			<circle class="st2" cx="124.8" cy="257.7" r="7.4"/>
			<circle class="st2" cx="138.9" cy="253.2" r="4.9"/>
		</g>
	</g>
</g>
</svg>
