<?xml version="1.0" encoding="UTF-8"?>
<!DOCTYPE svg PUBLIC "-//W3C//DTD SVG 1.1//EN" "http://www.w3.org/Graphics/SVG/1.1/DTD/svg11.dtd">
<!-- Creator: CorelDRAW -->
<svg xmlns="http://www.w3.org/2000/svg" xml:space="preserve" width="357px" height="90px" version="1.1" style="shape-rendering:geometricPrecision; text-rendering:geometricPrecision; image-rendering:optimizeQuality; fill-rule:evenodd; clip-rule:evenodd"
viewBox="0 0 65.32 16.43"
 xmlns:xlink="http://www.w3.org/1999/xlink"
 xmlns:xodm="http://www.corel.com/coreldraw/odm/2003">
 <defs>
  <style type="text/css">
   <![CDATA[
    .fil0 {fill:#399238;fill-rule:nonzero}
    .fil1 {fill:#F2762E;fill-rule:nonzero}
    .fil2 {fill:#F9C295;fill-rule:nonzero}
   ]]>
  </style>
 </defs>
 <g id="Layer_x0020_1">
  <metadata id="CorelCorpID_0Corel-Layer"/>
  <g id="_2369302598528">
   <g>
    <path class="fil0" d="M42.76 0.31c-0.41,-0.09 -1.02,1 -1.83,2.46 -0.18,0.33 -0.33,0.6 -0.46,0.86 -1.08,-1.18 -2.15,-2.34 -3.24,-3.52 -0.83,4.02 -1.09,6.06 -0.76,6.14 0.23,0.05 0.67,-0.7 1.37,-2.27 0.07,-0.15 0.68,1.22 0.79,1.38 0.63,0.96 1.88,1.49 2.97,0.98 1.03,-0.5 1.27,-1.64 1.43,-2.69 0.08,-0.46 0.43,-3.19 -0.27,-3.34z"/>
    <path class="fil0" d="M55.54 0.08c-0.68,-0.02 -1.18,0.18 -1.45,0.31 -0.76,0.33 -2.03,1.18 -1.9,1.9 0.16,0.9 2.47,1.1 2.41,1.45 -0.04,0.2 -0.79,0.11 -1.86,0.59 -0.57,0.26 -0.98,0.44 -1.01,0.74 -0.08,0.61 1.4,1.62 2.87,1.53 0.2,-0.02 1.73,-0.11 2.27,-1.26 0.05,-0.12 0.29,-0.6 0.14,-1.17 -0.29,-1.18 -1.93,-1.53 -1.84,-1.83 0.11,-0.39 2.93,0.35 3.19,-0.28 0.17,-0.38 -0.74,-1.1 -1.12,-1.38 -0.23,-0.16 -0.83,-0.57 -1.7,-0.6z"/>
    <path class="fil0" d="M18.68 0.48c-0.88,-0.44 -1.7,-0.4 -1.92,-0.39 -1.29,0.08 -2.89,0.85 -3.11,2.05 -0.05,0.28 -0.02,0.53 0.02,0.7 -0.07,0.15 -0.13,0.31 -0.17,0.51 -0.18,1.22 1.07,2.45 2.29,2.95 0.2,0.08 0.96,0.37 1.93,0.24 1.22,-0.16 2.38,-0.9 2.29,-1.25 -0.08,-0.31 -1.18,-0.04 -2.53,-0.33 -1.05,-0.22 -1.93,-0.74 -2.65,-1.33 0.66,0.28 1.6,0.48 2.54,0.39 1.13,-0.11 2.25,-0.63 2.21,-0.92 -0.03,-0.32 -1.31,-0.37 -2.39,-0.43 -1.03,-0.05 -2.82,-0.13 -3.23,0.13 0,0 -0.01,-0.02 -0.01,-0.02 0,-0.03 0.23,-0.09 0.7,-0.16 0.23,-0.17 0.6,-0.41 1.1,-0.57 0.31,-0.11 0.98,-0.3 2.17,-0.17 1.37,0.17 2.31,0.77 2.49,0.5 0.24,-0.26 -0.63,-1.35 -1.73,-1.9z"/>
    <path class="fil0" d="M28.04 4.26c-0.33,-0.91 -3.15,-0.72 -3.23,-0.33 -0.05,0.22 0.85,0.47 0.8,0.79 -0.06,0.26 -0.76,0.38 -1.29,0.33 -0.21,-0.02 -1.37,-0.15 -1.62,-0.88 -0.26,-0.76 0.58,-1.85 1.38,-1.94 0.46,-0.05 0.83,0.28 1.21,0.48 0.48,0.24 1.81,0.63 2.14,-0.02 0.72,-1.36 -1.53,-2.54 -2.56,-2.67 -1.38,-0.17 -2.65,0.72 -3.28,1.81 -0.17,0.29 -0.81,1.52 -0.28,2.85 0.72,1.75 2.86,1.95 3.14,1.99 0.29,0.02 1.49,0.11 2.54,-0.7 0.38,-0.31 1.25,-1.14 1.05,-1.71z"/>
    <path class="fil0" d="M35.63 4.26c-0.33,-0.91 -3.15,-0.72 -3.23,-0.33 -0.05,0.22 0.85,0.47 0.8,0.79 -0.06,0.26 -0.76,0.38 -1.29,0.33 -0.21,-0.02 -1.37,-0.15 -1.62,-0.88 -0.26,-0.76 0.58,-1.85 1.38,-1.94 0.46,-0.05 0.83,0.28 1.21,0.48 0.48,0.24 1.81,0.63 2.14,-0.02 0.72,-1.36 -1.58,-2.56 -2.56,-2.67 -1.38,-0.17 -2.65,0.72 -3.28,1.81 -0.17,0.29 -0.81,1.52 -0.28,2.85 0.72,1.75 2.86,1.95 3.14,1.99 0.29,0.02 1.49,0.11 2.54,-0.7 0.38,-0.31 1.25,-1.14 1.05,-1.71z"/>
    <path class="fil0" d="M49.04 0.48c-0.89,-0.44 -1.7,-0.4 -1.92,-0.39 -1.29,0.08 -2.89,0.85 -3.11,2.05 -0.06,0.28 -0.02,0.53 0.02,0.7 -0.08,0.15 -0.13,0.31 -0.17,0.51 -0.18,1.22 1.07,2.45 2.29,2.95 0.2,0.08 0.95,0.37 1.93,0.24 1.22,-0.16 2.38,-0.9 2.28,-1.25 -0.07,-0.31 -1.17,-0.04 -2.52,-0.33 -1.05,-0.22 -1.93,-0.74 -2.65,-1.33 0.66,0.28 1.6,0.48 2.54,0.39 1.12,-0.11 2.25,-0.63 2.21,-0.92 -0.04,-0.32 -1.31,-0.37 -2.39,-0.43 -1.04,-0.05 -2.82,-0.13 -3.23,0.13 0,0 -0.02,-0.02 -0.02,-0.02 0,-0.03 0.24,-0.09 0.74,-0.16 0.22,-0.17 0.59,-0.41 1.07,-0.57 0.33,-0.11 0.98,-0.3 2.17,-0.17 1.37,0.17 2.31,0.77 2.49,0.5 0.22,-0.26 -0.63,-1.35 -1.73,-1.9z"/>
    <path class="fil0" d="M62.49 0.17c-0.69,-0.02 -1.18,0.18 -1.46,0.31 -0.75,0.33 -2.03,1.18 -1.9,1.9 0.17,0.9 2.47,1.1 2.42,1.45 -0.04,0.21 -0.8,0.11 -1.86,0.59 -0.58,0.26 -0.98,0.45 -1.02,0.74 -0.07,0.61 1.4,1.62 2.88,1.53 0.2,-0.02 1.73,-0.11 2.26,-1.25 0.06,-0.13 0.3,-0.61 0.15,-1.18 -0.29,-1.18 -1.93,-1.53 -1.84,-1.83 0.11,-0.38 2.93,0.35 3.18,-0.27 0.17,-0.39 -0.73,-1.11 -1.12,-1.38 -0.22,-0.17 -0.83,-0.58 -1.69,-0.61z"/>
    <g>
     <path class="fil0" d="M1.33 0.19c1.88,2.7 3.75,5.39 5.63,8.1 1.85,-2.71 3.67,-5.4 5.51,-8.1 -0.27,-0.08 -1.77,-0.46 -3.3,0.38 -1.56,0.87 -2,2.38 -2.08,2.66 -0.09,-0.3 -0.68,-1.96 -2.47,-2.79 -1.53,-0.71 -2.93,-0.36 -3.29,-0.25z"/>
     <g>
      <path class="fil1" d="M6.91 9.54l4.14 -5.5c1.73,1.3 2.75,3.35 2.75,5.5 0,3.78 -3.12,6.89 -6.89,6.89 -3.78,0 -6.91,-3.11 -6.91,-6.89 0,-2.1 0.96,-4.09 2.62,-5.39l4.29 5.39z"/>
      <circle class="fil2" cx="11.4" cy="6.49" r="0.53"/>
      <circle class="fil2" cx="9.67" cy="9.4" r="1.36"/>
      <circle class="fil2" cx="12.27" cy="8.57" r="0.9"/>
     </g>
    </g>
   </g>
  </g>
 </g>
</svg>
