<?xml version="1.0" encoding="UTF-8"?>
<!DOCTYPE svg PUBLIC "-//W3C//DTD SVG 1.1//EN" "http://www.w3.org/Graphics/SVG/1.1/DTD/svg11.dtd">
<!-- Creator: CorelDRAW -->
<svg xmlns="http://www.w3.org/2000/svg" xml:space="preserve" width="420px" height="90px" version="1.1" style="shape-rendering:geometricPrecision; text-rendering:geometricPrecision; image-rendering:optimizeQuality; fill-rule:evenodd; clip-rule:evenodd"
viewBox="0 0 195536 41887"
 xmlns:xlink="http://www.w3.org/1999/xlink"
 xmlns:xodm="http://www.corel.com/coreldraw/odm/2003">
 <defs>
  <style type="text/css">
   <![CDATA[
    .str0 {stroke:#F1752E;stroke-width:796;stroke-miterlimit:22.9256}
    .fil3 {fill:none}
    .fil2 {fill:#FEFEFE}
    .fil0 {fill:#F1752E}
    .fil1 {fill:#389137;fill-rule:nonzero}
   ]]>
  </style>
 </defs>
 <g id="Layer_x0020_1">
  <metadata id="CorelCorpID_0Corel-Layer"/>
  <path class="fil0" d="M7516 0l26855 0c4133,0 7516,3382 7516,7516l0 26855c0,4133 -3383,7516 -7516,7516l-26855 0c-4134,0 -7516,-3383 -7516,-7516l0 -26855c0,-4134 3382,-7516 7516,-7516z"/>
  <path class="fil1" d="M83325 32792c0,126 -34,245 -106,344 -73,105 -198,191 -390,251 -185,66 -436,119 -741,159 -310,39 -707,59 -1183,59 -462,0 -853,-20 -1163,-59 -311,-40 -555,-93 -734,-159 -185,-60 -310,-146 -390,-251 -79,-99 -112,-218 -112,-344l0 -20394 -40 0 -7265 20374c-53,165 -132,304 -251,416 -119,106 -278,192 -476,258 -199,67 -457,106 -767,126 -304,20 -681,33 -1118,33 -442,0 -812,-20 -1124,-53 -310,-33 -568,-79 -766,-152 -199,-73 -357,-159 -476,-264 -112,-99 -192,-225 -231,-364l-7015 -20374 -32 0 0 20394c0,126 -40,245 -113,344 -66,105 -198,191 -397,251 -191,66 -436,119 -740,159 -304,39 -694,59 -1177,59 -462,0 -852,-20 -1156,-59 -311,-40 -563,-93 -748,-159 -191,-60 -317,-146 -389,-251 -73,-99 -106,-218 -106,-344l0 -22331c0,-661 172,-1164 522,-1514 350,-351 813,-522 1395,-522l3332 0c595,0 1103,46 1527,145 430,99 800,258 1104,483 310,225 568,522 780,892 204,370 383,820 542,1362l5421 14934 79 0 5612 -14894c172,-542 357,-998 555,-1375 199,-371 431,-675 695,-906 264,-238 582,-397 939,-496 363,-99 786,-145 1262,-145l3424 0c351,0 655,46 906,132 252,93 456,225 615,403 165,172 284,383 370,635 86,251 126,542 126,866l0 22331zm15185 694l-2096 6121c-113,325 -430,556 -946,695 -515,145 -1275,211 -2267,211 -515,0 -932,-20 -1236,-66 -311,-46 -542,-119 -701,-218 -151,-106 -238,-238 -251,-390 -13,-159 26,-344 119,-562l2300 -5791c-164,-79 -317,-198 -455,-357 -133,-165 -232,-337 -298,-516l-5943 -15878c-172,-457 -258,-801 -258,-1039 0,-238 79,-422 238,-561 152,-133 417,-232 780,-278 370,-53 859,-79 1461,-79 556,0 998,6 1323,26 323,20 574,73 753,146 178,79 318,198 403,357 93,165 185,396 272,687l4072 11569 59 0 3715 -11800c79,-331 179,-556 298,-668 125,-106 330,-192 614,-238 285,-53 780,-79 1488,-79 555,0 1018,26 1388,79 364,46 635,145 813,291 172,139 258,330 258,568 0,238 -46,523 -152,840l-5751 16930zm35189 -17452c0,1408 -219,2657 -661,3741 -437,1085 -1078,1997 -1917,2737 -840,747 -1872,1309 -3088,1699 -1223,384 -2657,582 -4310,582l-2089 0 0 7999c0,126 -46,245 -125,344 -87,105 -225,191 -417,251 -198,66 -456,119 -780,159 -318,39 -734,59 -1236,59 -489,0 -899,-20 -1230,-59 -330,-40 -595,-93 -787,-159 -191,-60 -330,-146 -403,-251 -79,-99 -119,-218 -119,-344l0 -22549c0,-602 159,-1058 476,-1362 318,-304 734,-456 1249,-456l5904 0c595,0 1164,20 1699,66 536,46 1177,145 1924,291 754,152 1507,423 2274,826 773,397 1428,906 1970,1520 542,609 952,1329 1236,2149 284,820 430,1739 430,2757zm-5329 370l0 0c0,-879 -152,-1600 -462,-2168 -311,-569 -695,-992 -1144,-1263 -450,-271 -926,-436 -1421,-509 -503,-73 -1012,-106 -1541,-106l-2168 0 0 8502 2281 0c813,0 1494,-113 2042,-331 549,-218 999,-529 1349,-919 351,-397 615,-866 793,-1415 179,-548 271,-1143 271,-1791zm13863 16421c0,132 -33,244 -112,344 -79,92 -212,178 -397,238 -192,66 -436,112 -747,145 -311,33 -701,53 -1183,53 -476,0 -873,-20 -1177,-53 -311,-33 -562,-79 -747,-145 -192,-60 -324,-146 -397,-238 -79,-100 -119,-212 -119,-344l0 -25465c0,-132 40,-244 119,-350 73,-106 205,-192 397,-258 185,-73 436,-125 747,-165 304,-40 701,-60 1177,-60 482,0 872,20 1183,60 311,40 555,92 747,165 185,66 318,152 397,258 79,106 112,218 112,350l0 25465zm19588 59c0,185 -66,324 -198,430 -126,99 -331,172 -609,218 -277,46 -687,73 -1229,73 -582,0 -1005,-27 -1270,-73 -264,-46 -449,-119 -562,-218 -105,-106 -165,-245 -165,-430l0 -1375c-707,761 -1520,1356 -2426,1785 -912,423 -1924,635 -3034,635 -919,0 -1759,-119 -2525,-357 -767,-238 -1435,-595 -1997,-1064 -562,-470 -998,-1058 -1309,-1752 -311,-701 -462,-1514 -462,-2439 0,-1012 198,-1885 588,-2625 396,-747 985,-1355 1765,-1844 780,-483 1751,-840 2915,-1071 1163,-232 2512,-351 4046,-351l1686 0 0 -1044c0,-542 -53,-1018 -166,-1422 -106,-409 -291,-747 -542,-1018 -251,-271 -588,-469 -1005,-601 -423,-132 -939,-192 -1560,-192 -813,0 -1540,86 -2181,271 -635,179 -1204,377 -1693,602 -489,218 -899,416 -1229,595 -331,185 -595,271 -807,271 -138,0 -264,-40 -376,-132 -106,-93 -199,-219 -272,-390 -66,-166 -125,-371 -165,-615 -39,-252 -52,-523 -52,-820 0,-397 26,-714 92,-945 66,-232 191,-443 370,-628 178,-192 496,-397 945,-622 457,-225 985,-436 1594,-628 601,-198 1269,-350 1983,-476 714,-126 1454,-185 2214,-185 1356,0 2519,132 3477,397 966,264 1753,674 2374,1223 621,549 1071,1256 1355,2122 284,859 430,1890 430,3074l0 11621zm-4786 -7397l0 0 -1858 0c-787,0 -1461,60 -2016,172 -556,119 -1005,291 -1356,522 -350,238 -601,516 -766,846 -159,331 -238,708 -238,1131 0,727 224,1295 687,1705 457,417 1091,622 1904,622 688,0 1316,-172 1891,-523 575,-350 1157,-859 1752,-1533l0 -2942zm19501 5639c0,569 -32,998 -105,1302 -73,304 -165,516 -284,641 -113,126 -285,232 -510,331 -224,93 -489,178 -793,251 -304,73 -635,126 -992,165 -350,40 -714,60 -1071,60 -971,0 -1811,-125 -2518,-370 -714,-245 -1296,-622 -1765,-1131 -463,-515 -807,-1156 -1025,-1930 -218,-773 -330,-1692 -330,-2750l0 -8852 -2070 0c-244,0 -436,-152 -562,-456 -132,-304 -198,-806 -198,-1520 0,-370 20,-688 53,-946 33,-257 80,-463 145,-614 60,-146 146,-252 238,-318 100,-66 212,-99 344,-99l2050 0 0 -3854c0,-126 33,-245 105,-344 73,-105 205,-192 390,-264 185,-73 437,-119 754,-152 317,-33 708,-53 1170,-53 483,0 879,20 1197,53 311,33 562,79 740,152 185,72 311,159 390,264 79,99 113,218 113,344l0 3854 3761 0c126,0 238,33 337,99 99,66 179,172 245,318 59,151 112,357 145,614 33,258 46,576 46,946 0,714 -66,1216 -191,1520 -133,304 -317,456 -562,456l-3781 0 0 8118c0,939 152,1646 449,2116 298,476 826,707 1587,707 258,0 489,-20 700,-66 205,-46 391,-93 549,-152 159,-60 297,-113 410,-159 106,-46 205,-66 297,-66 80,0 153,20 225,66 66,46 126,139 166,271 32,139 72,324 105,556 33,231 46,528 46,892zm19000 -7437c0,588 -132,1031 -397,1315 -265,285 -628,424 -1091,424l-10518 0c0,740 87,1407 259,2002 178,602 455,1111 833,1534 383,417 872,741 1474,959 601,218 1322,330 2161,330 853,0 1600,-66 2241,-185 648,-125 1210,-258 1679,-410 470,-145 860,-284 1171,-403 310,-126 561,-185 753,-185 120,0 218,20 291,66 80,46 146,126 199,245 45,112 85,277 105,496 20,211 27,475 27,799 0,285 -7,529 -20,727 -13,199 -33,371 -60,516 -20,139 -59,258 -112,357 -53,99 -119,192 -205,278 -86,92 -311,218 -687,370 -377,152 -853,304 -1435,456 -582,146 -1243,278 -1990,384 -753,112 -1553,165 -2406,165 -1534,0 -2882,-192 -4040,-582 -1150,-383 -2115,-972 -2895,-1758 -773,-787 -1349,-1785 -1732,-2982 -376,-1203 -569,-2611 -569,-4224 0,-1534 199,-2922 602,-4151 397,-1237 979,-2281 1739,-3140 767,-860 1692,-1515 2783,-1964 1091,-456 2320,-681 3689,-681 1447,0 2684,212 3708,641 1025,423 1871,1018 2526,1772 661,754 1143,1646 1454,2684 311,1031 463,2155 463,3365l0 780zm-4727 -1395l0 0c40,-1368 -231,-2446 -819,-3226 -589,-780 -1495,-1170 -2724,-1170 -621,0 -1157,112 -1613,344 -463,231 -840,548 -1144,938 -304,397 -535,860 -701,1395 -158,536 -251,1111 -278,1719l7279 0z"/>
  <path class="fil2" d="M20943 34073c7232,0 13130,-5898 13130,-13130 0,-7231 -5898,-13130 -13130,-13130 -7231,0 -13130,5899 -13130,13130 0,7232 5899,13130 13130,13130z"/>
  <path class="fil3 str0" d="M20943 29697c4821,0 8754,-3933 8754,-8754 0,-4821 -3933,-8753 -8754,-8753 -4821,0 -8753,3932 -8753,8753 0,4821 3932,8754 8753,8754z"/>
  <path class="fil2" d="M3549 16873c-53,5547 -247,11439 -328,16944 78,1210 2047,1277 2071,-80 -201,-5629 -604,-11261 -603,-16887 1,-1389 1978,-879 1712,-5463l-320 -5504c-248,-2 -26,30 -450,0 74,1470 172,4981 19,5912 -380,38 -243,11 -583,-5l-108 -5956 -366 0c-26,1131 84,4834 -46,5975 -267,18 -261,4 -459,-21l-177 -5933c-176,-14 -165,-22 -350,2 4,1366 71,4832 79,5951 -379,25 -328,29 -655,1l-53 -5955c-349,8 -167,3 -422,11 -37,1359 -218,3908 -295,5421 -226,4427 1348,4104 1334,5587z"/>
  <path class="fil2" d="M36563 19446c32,3274 900,1916 868,3324 -98,4223 -37,8537 -111,12634 96,1201 2072,1267 2102,-80 -188,-4277 116,-8565 -240,-12832 -112,-1344 501,512 496,-2175l-25 -15125c-2,-1185 -2284,-1305 -2830,6253 -545,7558 -314,2694 -260,8001z"/>
 </g>
</svg>
