<?xml version="1.0" encoding="UTF-8"?>
<!DOCTYPE svg PUBLIC "-//W3C//DTD SVG 1.1//EN" "http://www.w3.org/Graphics/SVG/1.1/DTD/svg11.dtd">
<!-- Creator: CorelDRAW -->
<svg xmlns="http://www.w3.org/2000/svg" xml:space="preserve" width="199px" height="50px" version="1.1" style="shape-rendering:geometricPrecision; text-rendering:geometricPrecision; image-rendering:optimizeQuality; fill-rule:evenodd; clip-rule:evenodd"
viewBox="0 0 36410 9160"
 xmlns:xlink="http://www.w3.org/1999/xlink"
 xmlns:xodm="http://www.corel.com/coreldraw/odm/2003">
 <defs>
  <style type="text/css">
   <![CDATA[
    .fil0 {fill:#399238;fill-rule:nonzero}
    .fil1 {fill:#F2762E;fill-rule:nonzero}
    .fil2 {fill:#F9C295;fill-rule:nonzero}
   ]]>
  </style>
 </defs>
 <g id="Layer_x0020_1">
  <metadata id="CorelCorpID_0Corel-Layer"/>
  <g id="_2368999778560">
   <g>
    <path class="fil0" d="M23830 180c-220,-60 -560,550 -1010,1360 -110,190 -190,340 -260,480 -610,-650 -1200,-1300 -1810,-1960 -460,2240 -600,3380 -420,3420 130,30 370,-390 760,-1260 40,-80 380,680 440,770 350,530 1050,830 1660,540 570,-270 710,-910 800,-1500 40,-250 230,-1770 -160,-1850z"/>
    <path class="fil0" d="M30960 40c-380,-10 -660,100 -810,180 -420,180 -1130,650 -1060,1050 90,510 1380,620 1350,820 -20,110 -450,60 -1040,320 -320,150 -550,250 -570,410 -40,340 780,910 1610,860 110,-10 960,-60 1260,-700 30,-70 160,-340 80,-660 -160,-660 -1080,-850 -1030,-1010 70,-220 1640,190 1780,-160 90,-210 -410,-620 -630,-770 -120,-90 -460,-320 -940,-340z"/>
    <path class="fil0" d="M10410 270c-490,-250 -940,-230 -1070,-220 -710,40 -1610,470 -1730,1140 -30,160 -10,300 10,390 -40,80 -70,180 -90,290 -110,680 590,1370 1270,1640 110,40 530,210 1080,140 680,-100 1320,-510 1270,-700 -40,-180 -660,-20 -1410,-190 -580,-120 -1070,-410 -1470,-740 370,160 890,270 1410,220 630,-60 1260,-350 1240,-510 -20,-180 -730,-210 -1340,-240 -570,-30 -1570,-70 -1800,70 0,0 -10,-10 -10,-10 0,-20 140,-50 390,-90 140,-90 340,-230 620,-320 170,-60 540,-160 1210,-90 760,90 1280,430 1390,280 130,-150 -350,-750 -970,-1060z"/>
    <path class="fil0" d="M15630 2370c-190,-500 -1760,-400 -1800,-180 -30,120 470,270 440,440 -30,140 -420,220 -720,180 -110,-10 -760,-80 -900,-490 -140,-420 330,-1030 770,-1080 260,-30 460,160 680,270 270,130 1010,350 1190,-10 400,-760 -850,-1420 -1430,-1490 -770,-90 -1480,400 -1830,1010 -90,160 -450,850 -150,1590 400,970 1590,1090 1750,1110 160,10 830,60 1410,-390 220,-180 700,-640 590,-960z"/>
    <path class="fil0" d="M19860 2370c-190,-500 -1760,-400 -1800,-180 -30,120 470,270 440,440 -30,140 -420,220 -710,180 -120,-10 -760,-80 -910,-490 -140,-420 330,-1030 770,-1080 260,-30 460,160 680,270 270,130 1010,350 1190,-10 400,-760 -880,-1430 -1430,-1490 -770,-90 -1480,400 -1820,1010 -100,160 -460,850 -160,1590 400,970 1590,1090 1750,1110 160,10 830,60 1410,-390 220,-180 700,-640 590,-960z"/>
    <path class="fil0" d="M27340 270c-500,-250 -950,-230 -1070,-220 -720,40 -1620,470 -1740,1140 -30,160 -10,300 10,390 -40,80 -70,180 -90,290 -100,680 600,1370 1270,1640 120,40 540,210 1080,140 680,-100 1330,-510 1270,-700 -40,-180 -650,-20 -1400,-190 -590,-120 -1080,-410 -1480,-740 370,160 890,270 1420,220 620,-60 1250,-350 1230,-510 -20,-180 -730,-210 -1340,-240 -570,-30 -1570,-70 -1790,70 0,0 -10,-10 -10,-10 0,-20 130,-50 410,-90 120,-90 330,-230 590,-320 190,-60 550,-160 1210,-90 760,90 1290,430 1390,280 120,-150 -350,-750 -960,-1060z"/>
    <path class="fil0" d="M34830 90c-380,-10 -660,110 -810,180 -420,180 -1130,660 -1060,1060 90,500 1380,610 1350,810 -20,110 -440,60 -1040,330 -320,140 -540,240 -560,410 -50,340 780,900 1600,850 110,-10 960,-60 1260,-700 30,-70 160,-340 80,-660 -160,-650 -1080,-850 -1020,-1010 60,-220 1630,190 1770,-160 90,-210 -410,-610 -620,-770 -130,-90 -470,-320 -950,-340z"/>
    <g>
     <path class="fil0" d="M740 100c1050,1510 2090,3010 3140,4520 1030,-1510 2050,-3010 3070,-4520 -150,-40 -980,-250 -1840,220 -870,480 -1120,1320 -1160,1480 -50,-170 -380,-1090 -1370,-1550 -850,-400 -1640,-210 -1840,-150z"/>
     <g>
      <path class="fil1" d="M3850 5320l2310 -3070c970,730 1530,1870 1530,3070 0,2110 -1730,3840 -3840,3840 -2100,0 -3850,-1730 -3850,-3840 0,-1170 530,-2280 1460,-3010l2390 3010z"/>
      <circle class="fil2" cx="6360" cy="3620" r="300"/>
      <circle class="fil2" cx="5390" cy="5240" r="760"/>
      <circle class="fil2" cx="6840" cy="4780" r="500"/>
     </g>
    </g>
   </g>
  </g>
 </g>
</svg>
